<svg id="Layer_1" data-name="Layer 1" xmlns="http://www.w3.org/2000/svg" xmlns:xlink="http://www.w3.org/1999/xlink" viewBox="0 0 48.31 22.82"><defs><style>.cls-1{fill:url(#linear-gradient);}.cls-2{fill:#21428f;}.cls-3{fill:#ba070b;}.cls-4{fill:#acabb0;}</style><linearGradient id="linear-gradient" x1="17.54" y1="13.45" x2="27.5" y2="25.37" gradientUnits="userSpaceOnUse"><stop offset="0.05" stop-color="#f2dc77"/><stop offset="0.25" stop-color="#d6b149"/><stop offset="0.29" stop-color="#dcba53"/><stop offset="0.4" stop-color="#e8cd67"/><stop offset="0.52" stop-color="#f0d873"/><stop offset="0.63" stop-color="#f2dc77"/><stop offset="0.73" stop-color="#eed671"/><stop offset="0.87" stop-color="#e3c55e"/><stop offset="1" stop-color="#d6b149"/></linearGradient></defs><path class="cls-1" d="M12.17,13.59s12,.84,17.65,9.53c0,0,3.93,7.85,7.85,7.85,0,0-6.17,6.17-11.77-3.92C25.9,27.05,20.57,16.39,12.17,13.59Z" transform="translate(-0.85 -13.59)"/><path class="cls-2" d="M25.05,15.41c3.23-1,7.55,1.67,9.51,4.09,1.38,1.69,2.27,3.77,3.84,5.29a8.25,8.25,0,0,0,9.11,1.43c-1.9,1.76-4.13,3.46-6.72,3.55a8.67,8.67,0,0,1-6.45-3.25,54.17,54.17,0,0,1-4.21-6.14A23.23,23.23,0,0,0,25.05,15.41Z" transform="translate(-0.85 -13.59)"/><path class="cls-3" d="M.85,13.66a20.75,20.75,0,0,1,7,5,61.69,61.69,0,0,1,7.92,9.79c2.07,3.18,4.23,6.85,7.9,7.8a7,7,0,0,0,7.17-2.52c-.78.68-2,.11-2.78-.55-3.23-2.66-5.16-6.55-7.82-9.78A27.22,27.22,0,0,0,.85,13.66Z" transform="translate(-0.85 -13.59)"/><path class="cls-4" d="M32.57,14.72a11.16,11.16,0,0,1,7.24,3.21c1.29,1.4,2.06,3.27,3.55,4.46a5.64,5.64,0,0,0,5.79.71,13.26,13.26,0,0,1-3.47,2.06,4.53,4.53,0,0,1-3.91-.28,7.74,7.74,0,0,1-2-2.52,26.87,26.87,0,0,0-3.22-4.14C35.33,17,33.65,16,32.57,14.72Z" transform="translate(-0.85 -13.59)"/></svg>